<mxfile host="Electron" modified="2023-05-04T08:04:31.795Z" agent="Mozilla/5.0 (Windows NT 10.0; Win64; x64) AppleWebKit/537.36 (KHTML, like Gecko) draw.io/21.2.1 Chrome/112.0.5615.87 Electron/24.1.2 Safari/537.36" etag="ZWqdklEntHPbfp084cpk" version="21.2.1" type="device">
  <diagram name="ページ1" id="D7Kej896yP4e_fUBTH-g">
    <mxGraphModel dx="1418" dy="828" grid="1" gridSize="10" guides="1" tooltips="1" connect="1" arrows="1" fold="1" page="1" pageScale="1" pageWidth="1169" pageHeight="1654" math="0" shadow="0">
      <root>
        <mxCell id="0" />
        <mxCell id="1" parent="0" />
        <mxCell id="5scalSbA3UBasT8FJ00V-1" value="AWS Cloud" style="points=[[0,0],[0.25,0],[0.5,0],[0.75,0],[1,0],[1,0.25],[1,0.5],[1,0.75],[1,1],[0.75,1],[0.5,1],[0.25,1],[0,1],[0,0.75],[0,0.5],[0,0.25]];outlineConnect=0;gradientColor=none;html=1;whiteSpace=wrap;fontSize=12;fontStyle=0;container=1;pointerEvents=0;collapsible=0;recursiveResize=0;shape=mxgraph.aws4.group;grIcon=mxgraph.aws4.group_aws_cloud_alt;strokeColor=#232F3E;fillColor=none;verticalAlign=top;align=left;spacingLeft=30;fontColor=#232F3E;dashed=0;" parent="1" vertex="1">
          <mxGeometry x="321" y="170" width="479" height="570" as="geometry" />
        </mxCell>
        <mxCell id="5scalSbA3UBasT8FJ00V-3" value="" style="sketch=0;points=[[0,0,0],[0.25,0,0],[0.5,0,0],[0.75,0,0],[1,0,0],[0,1,0],[0.25,1,0],[0.5,1,0],[0.75,1,0],[1,1,0],[0,0.25,0],[0,0.5,0],[0,0.75,0],[1,0.25,0],[1,0.5,0],[1,0.75,0]];outlineConnect=0;fontColor=#232F3E;gradientColor=#945DF2;gradientDirection=north;fillColor=#5A30B5;strokeColor=#ffffff;dashed=0;verticalLabelPosition=bottom;verticalAlign=top;align=center;html=1;fontSize=12;fontStyle=0;aspect=fixed;shape=mxgraph.aws4.resourceIcon;resIcon=mxgraph.aws4.route_53;" parent="5scalSbA3UBasT8FJ00V-1" vertex="1">
          <mxGeometry x="45" y="60" width="78" height="78" as="geometry" />
        </mxCell>
        <mxCell id="5scalSbA3UBasT8FJ00V-4" value="" style="sketch=0;points=[[0,0,0],[0.25,0,0],[0.5,0,0],[0.75,0,0],[1,0,0],[0,1,0],[0.25,1,0],[0.5,1,0],[0.75,1,0],[1,1,0],[0,0.25,0],[0,0.5,0],[0,0.75,0],[1,0.25,0],[1,0.5,0],[1,0.75,0]];outlineConnect=0;fontColor=#232F3E;gradientColor=#945DF2;gradientDirection=north;fillColor=#5A30B5;strokeColor=#ffffff;dashed=0;verticalLabelPosition=bottom;verticalAlign=top;align=center;html=1;fontSize=12;fontStyle=0;aspect=fixed;shape=mxgraph.aws4.resourceIcon;resIcon=mxgraph.aws4.cloudfront;" parent="5scalSbA3UBasT8FJ00V-1" vertex="1">
          <mxGeometry x="45" y="190" width="78" height="78" as="geometry" />
        </mxCell>
        <mxCell id="5scalSbA3UBasT8FJ00V-5" value="" style="sketch=0;points=[[0,0,0],[0.25,0,0],[0.5,0,0],[0.75,0,0],[1,0,0],[0,1,0],[0.25,1,0],[0.5,1,0],[0.75,1,0],[1,1,0],[0,0.25,0],[0,0.5,0],[0,0.75,0],[1,0.25,0],[1,0.5,0],[1,0.75,0]];outlineConnect=0;fontColor=#232F3E;gradientColor=#60A337;gradientDirection=north;fillColor=#277116;strokeColor=#ffffff;dashed=0;verticalLabelPosition=bottom;verticalAlign=top;align=center;html=1;fontSize=12;fontStyle=0;aspect=fixed;shape=mxgraph.aws4.resourceIcon;resIcon=mxgraph.aws4.s3;" parent="5scalSbA3UBasT8FJ00V-1" vertex="1">
          <mxGeometry x="266" y="190" width="78" height="78" as="geometry" />
        </mxCell>
        <mxCell id="5scalSbA3UBasT8FJ00V-6" value="" style="sketch=0;points=[[0,0,0],[0.25,0,0],[0.5,0,0],[0.75,0,0],[1,0,0],[0,1,0],[0.25,1,0],[0.5,1,0],[0.75,1,0],[1,1,0],[0,0.25,0],[0,0.5,0],[0,0.75,0],[1,0.25,0],[1,0.5,0],[1,0.75,0]];outlineConnect=0;fontColor=#232F3E;gradientColor=#60A337;gradientDirection=north;fillColor=#277116;strokeColor=#ffffff;dashed=0;verticalLabelPosition=bottom;verticalAlign=top;align=center;html=1;fontSize=12;fontStyle=0;aspect=fixed;shape=mxgraph.aws4.resourceIcon;resIcon=mxgraph.aws4.s3;" parent="5scalSbA3UBasT8FJ00V-1" vertex="1">
          <mxGeometry x="266" y="334" width="78" height="78" as="geometry" />
        </mxCell>
        <mxCell id="5scalSbA3UBasT8FJ00V-7" value="" style="shape=image;aspect=fixed;image=data:image/png,iVBORw0KGgoAAAANSUhEUgAAAgAAAAEACAYAAADFkM5nAAA+qklEQVR42u3dd5QcxbXA4d+dWUmAJMDkYIKA3ZnRAsIgosk52ASTg+GRgzHJZGPAgAETHtkgovAzmGzA2AYMyOQkgoDd6dmVEEiAwGQkAZJ25r4/eiQUtqt7Ys9q7ncO59jq6u6qXmm7usK9YIwxxhhjjDHGGGOMMcYYY4wxxhhjjDHGGGOMMcYYY4wxxhhjjDHGGGOMMcYYY4wxxhhjjDHGGGOMMcYYY4wxxhhjjDHGGGOMMcYYY4wxxhhjjDHGGGOMMcYYY4wxxhhjjDHGGGOMMcYYY4wxxhhjjDHGGGOMMcYYY4wxxhhjjDHGGGOMMcYYY4wxxhhjjDHGGGOMMcYYY4wxxhhjjDHGGGOMMcYYY4wxxhhjjDHGGGOMMcYYY4wxxhhjjDHGGGOMMcYYY4wxxhhjjDHGGGOMMcYYY4wxxhhjjDHGGGOMMcYYY4wxxhhjjDHGGGOMMcYYY4wxxhhjjDHGGGOMMcYYY4wxxhhjjDHGGGOMMfMzibsCDe8t/RH92AIhA6SABRCSKN8BnyO8T5636cebtMqncVe3ZlSTdLE2sC7K6sAqwJLAosC3KFNJ8C4F3kb4NyleQ0TjrrYxxpjeWQegN6pCjp2B44FNgJYoZwEdwJMoD5LmWUTycTelIh06iAQ/J8EeKFsBi5Rw9kSEK+nhRtplStxNMcYYMyfrAMytU9cmwS3AWhVe6WPgL+S5hnaZEHezSnwGrSQ4FjgUGFjRtYRPKHAYGXkk7mYZY4z5gXUAZpfVXyNcDvSr4lV7gPtJcAVt8nLcTQzkj3psB5wAbEt1/24oyvlk5Jy4m2mMMcZnHYCZPP0dcF6N7/ICykUN9zXcqduQ4DJgzZreR/lfMvKbuJtrjDHGOgA+Tw8Gbq3jHR8nyYm0SmfM7U4hXIbyszre9RjScn2s7TbGGGMdALp0LQq8BAyo8517gD8xnXNZU76s653f0h/Rn7OBX1Hd6Y4opqNsREZeq/N9jTHGzKa5OwCqCTxeQFg/pOQMlKdJ8CrKBJQCwiLAykA7MJzyF8t9jnImaW6qy7a5nO6IcguwTJlX6AKeBd5CGU+Sr4H+FFgaZUOEvfC3B7q8Ror1+/wuCWOM6cOauwOQ1YMQRoaUuocWTmY1mRhYYrT2Y2E2JM+uCHsCPy6jNv8izyG0y8c1aWuHDqKFy1EOp/Sf+zsotwP3kZH3nCVH60IM4iLgOGc54XBScnNN2mqMMSZU83YAVJPk6ATagstwMRk5o8TrJuhiZwqciLBpibX6rPhifLCqbc3qRgh/BlYt4awC8A+Eq0jJkyXf09PfAhcEHhfG0kbaRgGMMSYezdsByOmuKH9zlPg7KXapaFg+q+sgnATsRbRgQjPdQp4TKg6go5ogx++BM4BkxLPywEjyXEy7jK3o/jm9H+UXwfVjDzJyf0X3MMYYU5bm7QB4+iCwS8DRqSRJ0yofVOVe3TqUAleibFPCWeMQdiclY8q65zhdhOncgbBTCWeNQjix7HvOrVOXJUEXMCigxN9Jy85VuZcxxpiSJOKuQCzG66LAjoHHlRFVe/kDtEonKdkWv8PRHfGsVVGeI6e7lXw/T1PM4OXIL39hLMJupGXLqr38AYbKJOAGR4ntyekSVbufMcaYyJqzAzCNrQne/qYI19bkvml5mDyrA6cB30U4YxDK/Xh6FqrRRmu6dCfgZfzERWEKwJX0Z42qrzv44Q7XFu/Tm34UShoVMcYYUyXN2QGA7RzHnict42t253aZTlouIc+6wJsRzhDgfHL8ldG6kLOkp6dR4GGiJe2ZAGxNWk5kiHxfs/YOlffxtw0G2b5m9zbGGBOoWTsAGwQeEf5Rlxq0Swd51gcuIfgLeXZ7M4hn6NZ5txiqClm9HLiYaD/Te8nzE9Iyqi5tVYJDHwsb16UOxhhj5tB8iwDH6EAG8DVBq+KF9UnJK3WtU1Y3R7gdWDFC6YnANqQlB0CH9qeFkSj7Rjj3O+Bw0nJHXdvn6ZpA0NoCRVmSjHxe1zoZY0yTa74RgIVoI3hL3HQSVG8RXFQZ+Q95fgJE2W+/AvAMXboWY3QgSR6O+PKfiLJJ3V/+ACk6gKAtjUKi4tTLxhhjStR8HYAeZ5S+LlplWiz1apcvmMT2KNdFKL0UBf7DAryMez3DTM8xg3Vji7/vB/t5M/C4Rhr5MMYYU0XN1wFIsILj6MTI16mFLaSHjByLchQwI6T0IijtodcUbiTPVqwhn8TaNnAtrFw+5roZY0zTab4OgPtrc0Lc1QMgIyMQtgT+W1FLld+TkiNpl+lxNwn4yHHMOgDGGFNnzdcBcL9sPoy7crOk5DmSbAS8W8bZeYQjyci5cTdjFnU+2+Xirp4xxjSbZuwAuFLVNk4HAKBVxgGbIHSUcNY0YB9SclPc1Z+L69naCIAxxtRZ83UA1JkUJ54FgC5p+YjpbIXwdaTWKb8mLffFXe15JPjUcXThuKtnjDHNpvk6AOKIfaCUn/mvVlSFFi5BI0X3ExKcj6dD4q72vO2IFOzIGGNMnTRfB8AV/CjRgC8pj8sQDoxcXlka4XG6dcnI5xhjjGk6zdgBCG5zo32lZvVkhJNKPk9ZjTz3M14XiLsJxhhjGlMzdgD6RvjjrO6HcEkFV9iEaYxEtRl/xsYYY0I048thauARZdG4KwdAVjdCuBVXZ0XoAT4IudLe5Lg47uYYY4xpPM3XAVA+CzwmxD9v3qErkuABYEBIyaMRNiA8euEpeHpo3M0i4excfRd39Ywxptk0XwfAvR1tiVjrNlEXJMn9KEuHlDyblNxMSj6kwI4QukXwWnK6XqxtK7CM4+jHsdbNGGOaUPN1AHCMABDjCICqMJXbgOEhJUeQlvNn/b+h8g6wG+AK97sAyoPkNL6AO+5OTSUhj40xxpSh+ToA6hwBiK8D4HEOsHdIqYdI8at5/jQto4CjQ85dFuVeujVsaqE2hKUCj6l1AIwxpt6arwPgHgGIJya9pzsjnB1S6i3yHFBMrTuvtNwK/CHkGhtS4OpY2ugaARDrABhjTL01XwdAnSvnW1FNRr5WNfhR+0bi3p74KcoutMsU57VSnA38PaT9R5DVg+raRgBxdACUuFMVG2NM02m+DsB0PAgM+TuATuoXRtcfjr8H+JGzxsLuZOS90OuJFID9Q5MHCdfRrUPr1k5fq6M+tgjQGGPqrPk6AMNkKq6tcwkydatLnisJW/SnHEdKno18zbRMpsAvgK8cpQZS4B5G60J1aec4XQR3xr9cXephjDFmlubrAPiygUekTh2ArO4LHOUsI1xLRkaUfO2MdKHsDeQDyyjtDOKqurR1Ou0ET3FMJcX7damHMcaYWZqzA6B0Bh6rRwfA0xTCjSF1fJkeflP2PTLyOMJ5IaUOI6v71by9CVzTDdni1IUxxpg6as4OQMIxAqCsXtN7j9IW4M/AIEepL4F9aJfp0S4aoI0LgCedZYQb6NZVa9pm1zMV3qnpvY0xxvSqJe4KxCTrODaMibogK0htwtMux3kowVH5FBBeJcGFZHVh5gwJPBgJ/JkpOtu8vzCDHJOBSfj5DwYGnDeYPH9GddPALYaVEoYGLrsshCxYNMYYUxN9IzNetY3RgQzgK4I6QMKmJS28m123LkmBITDHf8uhLAUMQVmyQZ/6ZOBd4CP8TsN4YDxa/G+oTCrrqqpCjo8hIBCQsBMp+WfcjTfGmGbTnCMAw2Qqnr4FrN3rcWVDILgD0KH9SZAiwVCUNRAyKK3AEPLOof1G7nINBoYV/5uzvgJ4+j1+p6ALoZMC75CkEyFLq0wLvKpHqzMKYI9NARhjTByaswMAoLyIBHQAYMNZ/2ucLkKedSmwPrAW0I6/p71l1rC20gwWADJABmUXBPCX7uXxdBzCOxR4jQQv08JoVhU/QZGwieOak2iXCXE3zBhjmlHjfo/Wmqf7A38JODoZ4YHiXH2KZl0sWb4CkEN4BUihbBBQ7m7Ssk/clW0Ib+vS9A/dtVFdyvcoX+KP7HQzlTcZLt/G/SiMMfXRvB2ALl2FAuPirkZTU35NRq6NuxoNIattSOwBkXqA14GHgftIS9z1McbUUPN92U7UBfF0F5TfIdRm1buJRtiMrG5Lh/aPuyoG8KcE1wMuALJk9d9kdbu4K2WMqY3mGAEYp4swnZ0QdgN2IHhLXH35W/6yKB8ifIW/En8y8A0weda2vgRfoxRmnZWYK8yvMhidbT2HzsotsDD+4r7BwCCERYt/thjC2ij1TXwU7GvgH8CD5PlXaNKj+VFjjAAEeQrhV6TEi7sixpjqmX87AKO0hWXYAeFQ/Jd+Pb8yv0aZgLAasGBgKeEiUnJmLM/H012ABx11KwBZlGWAxetYs++AB4BbSfGfpokS2NgdAIDvUE4jI9fEXRFjTHXMfx2ADl2NFg5BOQhYroZ36sHfN/820InQQYGxFBhPu3xBTkegHOE4P8cA1mKIfB/bs/L0L8D+jhKvkmJDxjKQPCsDqWJQn3ZgdWA1oF8NazgeYSQ9jJzvdws0fgfAp9zExxzDFtITd1WMKZunwyEg86uSJyMPxF3Fepg/OgCqCXLsDhwDbFaDdn2PvzjqFWA0CTqc+9+zuhnCKEc9CiibkJEXYn1uOV2imBdhycAywkmk5Ipej82MhwBrIKyLP3+8Nv6WwWoqAP9GuYKMPBbrM6uVvtIB8N3PJPaxToDpszy9CTgs4Oh3pKU+mVJj1rc7AP4w//4IZ+Bv16suf15+WybzJsNlRqRzRms/BvIm4kyAczVpOT6ORzaPrO6LcKejxLcUGMpQiZaxz2//mgiXAFvWoMavAxeR4oH5anogWgfgI/zOaKWWwF8LUonG+TtsTKmsAwD01Q5Ah/anhX1QzsIPylM7ykZk5MXI5T09BbjEUeI98qzRUAvdsvoIwk6OEveQlr0jX88P//susHINa/0ucDUDGBHrNEq1ROkACJuQkueqcr8O7U9/lqKH9RG2BnYCVijxKnuTlntieV7GVMI6AEBf2waoKmR1P5KMQ7mdyl7+YxDOJcna+LHvg57Q7pGv2KHLAGe5WoByZEO9/AGEI2CunQVz2gtPt498PY8NcL/8j0a5GCoa8l4FuJJpdBQXNJpStMt0WuUDMnI/aTmaKawKHIIwtoSrXEdW67lA1BhTRX2nA9Cpq5NjFMIdwI/LuIICz6OcTIJVSctapOT3tMobwN8cZ+2OarSRkgRX4BpaFW4nI4/H+Rh7lZaPEGfHBeCKyPv1hb0cRz9lEjeTkTNIS7qYT+FMlDfKrP0qwIN4+ig5Tcfw9OYPw2UGabmN/qyBclPEs5ZA6hy90BhTNY3fAejWhcnq5SR4HX+BX6k+QriIPG2kZWMycjlt8u5cZe53nL8yXmDOgB9kdVsEV1jbr0hyWv0fYERtXI+/yDFImiQnhF5HNQHs6Shx/xyLx9okS0YuIiNrI6wFXA18XkYLtkN5C08vpVsrnd9uXkPkezJyBP6C2ihZLg6lU5eNu9rGmNI1dgfA05+S5x2Ekyhtu1kP8BDKzkxiJVJyJu0SPLQ5iWeATwOPC+7579HaD7gCt3NYTf5b5ycYnUiBBMcBroV1v6Nb3aMv3WwMLB94XLk78FhKxpCW40myPLA38GhIfebWDziZPGPo1A1KOM/MLS3XA3+IUHIACY6Ou7rGmNI1ZgfAn+s/GRhFaQuTvgWuJskQ0rIrGfl7pK1KfpmHHCX2RzU4at4gDgtZ9f82k/hTXZ9hOdrkZeBWR4lB5Pmj8xoF9nUc/Yg0z4TWo1WmkZZ7SMsOwFDgNmB6CS1ZmQTP4OlpkadvzLxSnA08GVpOnD9zY0yDarwOQLcuTI57EC4l+lf/FPyh41bScjyt8kHJ91Xucxxdji62DawvnOu8coJj+8yeaX9L5ReOEvuS0/V6PTJRFwTnNMi9JW/dS0uOtBxCnpWAP+J38qLoB1xMjidsiLpMIopyGmFTAcpqdOrqcVfXGFOaxuoAdGored4A9oh4xjSEC8mzEmk5nrR8VPa90/wbCO44+JEF59XDGcBSjivfSZuEf/WG6dahZPUMcvo4no7D0y+K/32Ap//B0z+S1Y2Kc/DlS8lnuHcyCMqVvX5ZT+UXwKKBZxa4q+x6tcvHpOV0kqwMXAlEi8sAW5LgVbK6RkXPpVll5DX87IBuSTaNu6rGmNI0Tgcgq+uQ4Dn8Vd1R/JM8q5OS39IuX0Q8J5j/ZeoKiLMLb+mP5viTDl0RwRUMZTJwatl1Uk2Q1f3wNEueDoQLUbYpPqMfFf9bHn9x5KkIz5PjQzw9tfg1Xp4UI4DXHCU2xOMXvfz5IY5zusnwctl1mqlVPiUtJ5JkLZQnIp61PMIzdKm9pMohzkWyM60XoYwxpoG0VH6JKvB0TeBxYLEIpccDJ5KWhyKULU2S28kHvrAXoD97AzfMVv5CXMl+4IKyRyVyui45bkAi7ECY0zLAH5nKsXh6Emm5r8Tz/c5QVo9DeI6gYFHCJXTrI7PCIXfpKhTYIvia3IpIlFXl0bRKJ7ANWf0Fwv8CK4WcsSgF/klOt69aMJ3m8S8gD47skcpqda9VVhcnySL0sCiCoHxDkm9pY1KfjhI5WhdiYZZBWIAeFqSFAsrXzOArhvI1In07jXmHDqIfS5FnINCfBFOByXzPVwyTqXFXr5nEv0DK0yHAC/gvrjB3kOeomgbS8fRlgr9mXiUt6xXLDcffNhf0DN8jSTowX4BLTvdGuQ135yKqq0lxYlm/ELP6QDGFcu9mzxPg6QXAbwNK9gArVTRF49KtC1PgBjTSYrRvSLAZbfJmTepSrnpHAiyVp+8DKzpKfEhayonPEc0YHcgCbEaBrRHWB9IEfzBMA7rwE3U9RYEnIoeyrrecLgFsgrIpsA5+gi3XmpUC0IXwBgVeR3mODK80bIenQwfRwqYoW6CsR4IUytKOMz5E6CzGBXmUSTxbk/VTFgkQiLsDMFEXZCrPQehX7jTgNNJyVc3rlNNjUK4LPC6sT0peIatPI455T2U/MvLXku/vhxL+I9X82Sh3kWb/kn9JdGorCd4hOJXyl0xnVaYzhUGMJ2j7n/AIKfl51doTJKcHovwJGBhScgIzWI815JOa1ymqxu8AuDrGAN+QlkVq8Fw2RDgcP7bEoAqu9BzKLSzAXbGHju7WAeTZA9gP2JbKR2I/QhhJguvLWgBdC55uCRwM7Eb4v0eXr4A7KXAlQ6U78llhHy/VMY601H/kq4riXQMwlesIf/m/T4IN6vLyB+jhLvwOR5BjyOp2zpc/vEK6jAVvOd0VuJhqd8yEfcg5dyr0zv8Hd72jxI8YwMkMZndce//hlqq2J0hK/kyS9fC//lxWpB932BbBEghhMSwq+SU/r6xuSFb/jfAC/oukkpc/wMYItzGNLnJ6OKO0/tOfY3QgOT2RPOOAvwA7Up1p2OVQziRPNzm9DE8H171tM+V0R7L6Ev720QOo/O/FosAxJPDI6Z14WssU700nvg5AVrfD/4ft8jawUV2Ha/0FhfcGHlf2QUIDpJxR8nx3l2ZQ/o/a/UzOKnYwSjOd3+OKzKccj3Jy4HHhEybzjxq1aV6t0onwU4SXQkpuhcev6lavvk5DX8ClT3X1ZrwuSlZvRHi+mKSo2lZAuZFleZ4uzdTg+r3L6s8YQAfK/+LuLFdiAZTfAGMCt+rWylhdAU8fQvlHcYqm2hLFKT6PrB5Z17bNx+LpAIzSFoRrQkplEbas2byxS8ExBQAD8OfqgjxEWp4q+Z55LqXyrxwXQbmCbh1Q0llrypchHZ6BIc/jlsiplKslJZ+RYDs0ZNeBcGFxDtaEC1ujU/m6nJyuxzTeKg7513p0Zj0KvE5OD6zpXTp0EJ7egfB3wheqVssQlP/ULUlWTnelh3eAnetwt8EIN5DTkYzXBerSvvlYPB2A5fgfXJn8hE9oYbvinvT6GyovAaPLOLNAPnAhXLAu3TQkHW+1rEyBY0o+q4fr8HdflGoGxBQBsVW+YQY74J4OGEyBM2OpX1/iD5eHLfCbFOVSgTw9AOVpSk9JXIkFUEbiaW0SGnmaooWX8Of6621B4O7iXHztZPVclAdwJUGrBeUgpvEIo7UpFuvVSjzbAJXjHEcLFNiblEyM55HMcj2lz13fRbt0lHynAifVrVXKSaheWdIURbtMJ6cXlpAlzifcR0o+rFvb5ramfEmX7kqB0UDvvyiEwxijv7PtRw7LsxGFkNEp5d2IV5tXTg9HuYFoHyRfAY+hjALepoUJtBRHH6YzEFgOyAA/Rdke984F8EcafoenkJazq/bMcrouyqNopK3N4G+zHAOMQenGn3abgjAAYVFgSQqsi7Ae0V+2A4C7eFvXqPqCV1XB43KEE0s8swCMKy54/QjlW5R+CAvh74BYHT++SRRbMYhH6NYdytptZWLoAHTrT8gTHJVNuZ6MPB3nQwFgIH9lKpcSLTYBQB7h/JLv4/dgt6ljy35MjnUodYTjI0ayLKfiGrmZWyF0mqf22iSLp2cAQYtIB9OfPYGRcVe1YRXYMbRMgjFlXdvT/VFGED7kPw64kIH8lRXku4AyXwEfAq8Cf/ZzirA1CU6GgFDeP/gdOf2ElFxHpbK6IcqjhL+oCyhPAbcxg3+xpnwZem3VJN1sT4EjgZ9FeG5L0sKVUOV8DTnOK+Hl34PwKP7CxyedI7uqCXKsjb/r41Bg8ZBrb0EPN8I8kVpfwN9+HGQ4MCTgWB54ILRVQuPsIipT/VdBZ/UMhAsDjk4hySq0yqclXbNWPL0UHAvc5vQX0vLLMu6xC/BgnVt2AWn5XclnZXVfxBktcXY/xEyI2yhtYVk6Ce683E1a9inlklXXqNsA/RXlY3GHuwZha1ISnjhozjZvhPAk4JrLnYFyLgUuo11KSQg19722Q7gJ9xTDDJTNyMiLFT2znKZRXscdx+NBlLPJyNtl36dLN6XATUBbSEmlwHCGyusVteuH9v0S5XbC3x8K3Emec53ZWIOM0YEM4DTgFNx/R8YjrFfSlLHFAQDiWAOQYCPH0bsb5uXv1/V6/N5gmDxwQVn3kFhCqK5b1llp7gbeili6Pts2o/ADibi+7H4adxUblp+Ke6mQUt8Uw3hH16GLIdyL+xf7p8UX8oUVvfwBMvIY0xkWEj66H8JfGaOVbV1LiYcS1MH+EGEn0rJbRS9/gDZ5hjzroKEZNoVEGWt/epPVtuJ0TdjL/yMKbEdaDijr5Q8wTKaSlrMRNkAIusY7wMaxrRfr4+rfAVBWdhx9NLYn0Zs2eRd1bAmcSfgLaclFuGJvhpR5XiWi5luYq51SAKLMk35APsJzq6ckjziO/rjk3RHNoEvXQjklQsmHSp6DbeFa/Pn6IP8FNqn4a3x2a8qXFNgJd+rvlRjAORXfK80VwPNz/JnyBHnWJCX/rFqb2mUK09kRd+4OgL3o0P5RLhlINUmC2wlaT/NDO99AWI+h8u+qtDElYyiwQTE64OxeYDqbxrJTbD4Rxy6A4DmdJOPiexQBElwcUkJJlDH3P1OhzqtnfeVHbPNzMEwIeSI3V/zFVm2r8S6uOcECth1wdh26DAUeIkoglwSlzZt36jYhYZunI/ysgk51sHaZzgD2wV8nEOQEOrSyCG8iBQoczA/pq0fwMTtUJXHZ3IbJVJIcjnvOezAtFe7P7+IQlA1CSr0NbFP1xb8Z+ZwCWwNe8U/+xRS2ibRuwgSKowMQ/GJQKuuh1sY0xJEPXVCE8l92EmmKodrKj62tmgz9OUnkVbz18xotuP6+JyOnF57/derqJHmG8BX0AE/RJtGzPKomSHCpuwznkpJXI16xdEPkexIcBASFBO5HsgrbQ/1ImmcgXEuKo2sS036mVnkD4Q5nmUIFHYAxOhDl9yGlPqPAz8nI55GuWap2+QJhN4QbmcIuDJdvK79oc4ujA+BYAcqa8T2KwDqdijrmu5QEPZxe9vWF6n8RhCv/nl3sh4QGhTms4QLsLMQaBP99L7Aqtfml1ZeM1n54ehQJXiLabo88CX5T0j1y7A4Mc5R4njSX1LytbZJFOctR4gByWnnEvhTX0MZxVc2EGURDw4+HLRYM1p9DcCcpAuWQmiddSolHSo6se3Cx+VQcHYDOwCNa8+QNpfF/AewfoeRhdGp5Ub4KRE9wUS0SGiu/d/7Xf5RARwNRjqp7u9xt3tNxNNfnU6xWYqwuRVaPZBA5/PgX0RbBCZeUEab7OOdR5dS6/SymcjUQFG+kH4V5tpaVTkTr8vIHmMKT4BjJktBgTr1TFSQ0bPb9ZOTvdWmnqZr6xwFQnkcI2i63Ld06tJjrvREcA5GmJfqT4Czg8DLuMarurSqUec8uDgFSEUsfQ4de0hBrAcbpIsxw/GyEZ+OuYiTKzmR1aEXXSKBAP2BJlGWADehhGFLyluBnmVziYjlP1wQ2drTvGTLyQi0eXa+Gyww8vRY/++a8hP+BwC3Ljcdvz8cEb3UsL9S4x2aI8999ngSlbys2sat/B6CFf5AnDyR7OZosxsSvR1hcN3/F7KElnHEQXXoRbVJaRLQ0L5NjEmHDa9X1SMln+ClMzyrhjGVpYR/gz3VsV++mczbiWHwqPBx3FSM6peLIHdX4FlU6KbBrGcOwe4Ucv6wKtSvNdG6iP+fS+5791gb7IIliEsEdgAVLudAsCXYP+Xvzd9okG3fDTenqPwXg56t27cXdEU/DsgTWXoI9UJYu4Yx+jr2/wfytdQ/WsWWvkpH3Sj6rh8OJtijsB8rxdWxX7zzdAuEER4kPaG2w7aeNbTQtbF7mavZfOI5NpYXH696aNeVLdK7terMrsH3d61SZ6o+4KbuGHK9Pum9TdfEkAypweUiJ6+jUtWOp20zhc17zUn6Jp1GHyGd/Hn8keEVytdt1bsnnjNcFkLIWOq5Nl25al3b1pktXAe7B9fdcuKKp5/9LcysD2bSsYF0dugx+jP4gT8YYzz04e6eyWc3v7ulgsroyOV2XnG5MVtehU1sbItudp0NwJ4KaTCGGjpuping6AH6ACNc89IIkeIRuXTWW+uV0GDgjFgZJAqVnFhsq7yMl7qUuz9NlBSGZxnG4c5jnHUdOqEO75pXT5VEeA+f+/gn0jylbYd8yngQ/Iy2HOuLwuyVC/j25I/TVljuK4TqRrxPVWF2BnP4KT+/C0w+BbxDGo7yC8izCaBJ0MY3v8PQDsvoIWT2TrFa/LmHC9/0/2RDrfExZ4ukAAOT5NeDq8S9LnicqDshRjoLz638GgiuE555kdcOS79nC+UD1A5/84BsSHF3yWR26GHCao8TXxZCuvRN2Jqsr17Bd88rqyiijUML+7vyaIVKfkZe+6U2Uo8iTpk3+UdGVhLVDjtd/N8xMeWdgq+Xp1iWrcp+sboan99HDuyjXAnvjjobo31/YCeEPCKPxtIucns44LT+YV2ncW7OVV+pUD1MD8XUA2qUDDf1aXpkWnqtrz7dbF0ac+bv/RsG5FU5I8L+olrZca1X5GmVnoBaRrQooB5S1UCfJObgyIgpXUOBCgpeXJREOqUGbepfVdRBeIHwf+y2kpa8s/quXySgvo5xHgqGk5SdkZERVvvCUsNG88bG1uh8f41oeWagwXHentpLVfyP8B9idyhZft6JcxAzeJ6tnMFr71fTZSEjY8HKzQJqGUP9dALNLczEeGyGOVf/K0gjP4+lppKX2CWYK7IVrH7TyJzLyNDl9KXB4TNmAHHtAifHwM9JVzF//INFzYofpQTiGdBl7dDu1FZyjBp+T4ApS8g2ePg1sHlDuEFR/X9O5dlUhx3H4W7rccf2VN5jeAAsUSzeZ0qM49id8X/8YYDdSvFfDPethL9ERZDWe4C49UIz22XunXVkRyvzSzep+CCModwtesEUQLmQQ+5HV/SpOLBRsZefRHmob+MfUVLwdAJEC4/UApvES7v3lA4Aryen6KEeSlsk1q5M6gn8onaSLmbeUk4FnCc6KdREd+lDJX09t8gzdui49PIxQ2Z5v+AJhr5LTtM4k/BF/z3iQ82iVb4rP41oksAOwPB47UM72wyi6dUk8bnN2JH/wIQl+zjCZWpO61NYOpOX5ks7I6uIInbgz+g0DhiNSu6/w8PDQm8WQnDxq3UvZDfQDT08FLqa2addXR3iBrP4PGbm/BtcPm2qYVMO2mRqLbwpgpiHyFS1sAxF6kn4CkVfp1LCFKeXxFx0Gp4YVRsz6QvJ/Ebv+wa1KC8eWVY9WGUcLG+J/zZaz6KoA3EGen5T98s/pJogjMqMwljw3zPr/H/MQ8LGj/GHUQlZ/Tp4xEV/+Hxfz1lc3UUkjy8jnaKSFmNdWba67d5Wl2I2TUnpueE+Pwv/3G/Xl34VwI8LhwC7AxiTYDNgB5SiEy/GzC/Y2SjII4W6yul/Ee5XC3fb+9MWOtCmKvwMAsJpMJM/WROkEQIoEz+PpzVX/hdXDgQT/g51Okr/O8Sd5zsCd3Oi3ZcfEb5VvSMvpJGkDZ8jS2X0J3EGS4cU83BMinNNLvTWBhmzVLHD6HKMbfqITV9CfnfA0bMFTdF2awdNHi0F8ogRR+ogkW5ESL0LZ+UtG/ooStohvKfJcU8NaNGKir2ikxA6Ap8Px/82GyQN3owwnLSlSciQpuZm0PExanqdNniEtj5KREaTkZNKyMbA4ysHA3BETkwi3Q8WjhnO33f1zW62CxGImdo3RAQBol7EU2BAiLSpJAIeSpwtPj0c1GeEcNz/e9QGOEv+cZ/9zu4wF5zayxVAuqqherfIBaTmeFCuhDC9OPfwJf33BvcAtKL9F2JopLE1aDqBV3qjonl0cCqzrKPEiaR6Y9xlyC8GLqVqc0ytRjddF8fRiCrwJbBfpHKWTPBv2sYhu1VXgGPw1BC57k9VfRLlcGfpu5jYtYarU/110G+6pM4AJCJuTln3IyGuRr5+WyWRkJGn5KQm2Yc7fly24FuyW13b3CORbxB+rwJQt3jUAcxsqkxivmzON2yAk+pRvUeBKchyMpxeQ4oFiZL3SeWzqXPHq967nled8khxE8KK9Q+jUWxgqL1X0bPyph9eK/9VOhy6GOuOfKwVO6nWxWEa68PQZCAie4u+uKK9D9Jb+iH4czTROxL23f24PMYODmz5veLtMIKtnIiFf+Qn+RFafrkFK17AOwHv4U1eNR0rYmZPjQGD1kFJjyLNlmdEUf9AmT9Ch65Hg9winUYu1BsJUZxjgfiwMNg3QVzVWBwD8NQGqvyiu6L6EaEOHw4B7yTGOrF7Cx9xacu5tYV/H0c/oofcAOu3yBVn9AxIYxzxBgutQXa9PRJxLcgHuF+w9IZ2ZmyEwetrqdOrqDJV3ItenQ5chwVEIx+N3+KL6HjidFFfXLRtbo0vzJ3LsBwTHqfB33VwFztGwcnzmPJpnm+KIWl93Qsjx98izfcUv/5n8abgzyGoO4Saq/TtdcUd9TPJjbCFgn9U4UwCzE1HSchXK5kAp89irIoxgWXJk9UjGaLSFR6oJ/IU3Qe50ruYvcA3gmltemy6OrNvzK5cffvkIR4nv0JCQwFN4ANdQc4K9I9Ulp8PI6UiSTEA4h1Je/kIHBdYlLVfZy382IgWSHEZ4vPj98XTn6t4bd5Kslgpy1TeKLl2L8MA5v6ZdPo50vVJkZCRhqZbL494ZUggNtmUaWGN2AGbKyIsoawN3Uloes1UQbmAAH5HVG0N3DXSzMbBM4HHhDuf57TIdCVnxr1xEp9Yz419pVIUE19J7lsaZ/hCaSGi4fAvO7Hr7BgZJ6tYl8fR4svo6ypvFNQOlBDrpAa5kIdYtaZShmbRKZ8R1KTfwllYrFgUQ0gHQ0MBNja8QuiblKTJSm62wAGm5Hhhd5auOcx4Ni/BoGlpjdwDA38aUlv1JsDlQ6i/1hREOJ8GLeJrF09MYq/Puhy6wu+MaE2jj1dA7+dvt7nbWJVnhgsBaynEIrqFhYSzJiOlalbscR1clN1t8ddUkXbo1nt5Dng+AKxF+UkYLnkJZm7ScWHa8+mZR4EKUsAWRy9KPK6t2TwlduzI87sdSMWX9kOP/V4daVDe0tYZ0KJRN6tAmUyON3wGYqU2eYQprF1fBlxMIKA1cTA8f4OkTeHocng4pfo0G73dX7o88jCz8xlk35UA6dZs4H2Ov/K2KF4e07YTI2dr87GBfOK51IDndG0//Qo7/UuDfwJ6Ut1WsG2Vn0rJVDaOhzV/86azDCFt0JxxIl0aJrxAuz0u4R/F+Rof23a2CAELacVSB0qNxxm0BXsb190RYt9ePKtMn9J0OAMBwmUFGLsd/md9Cebmv+wFbAVcB7+LRBawQWFqIHl3LDzBzvqOEkOAmPB1c/4fn4CcmcS38e6ikZDD+C+aBwOPKscVRgv0pf9vSxygnk2d1MmWEOW52GXkRiZAJscAIxuuiVbjf5+BMorUoLWwd92OpkOtF+EUNdlbU3hD5CvfOowQ97BN3NU15+lYHYKa0fERaDiNPK8K1lBctzyeORSzCJ6R4saTrTeFKhA5HiZUQ/lDnJxbM/8JzLcz7DjixpGuO1n4obzlKVLJdqRvlSAYwhIxcbqlIK6CcSfgi2+WZFhIUKqqwzrRyYNyPpELB8f6F6i/8qxflbyElDi85+ZlpCH2zAzBTu0wgJb8mzyrApcCUKt9hSXK8QU5vI6u/xtOf0qHupB7DZUYxnXDwcKfyK3K6cdyPjw4dRCH0K/APpB0x4ju0P1ldh5wejqc34OkrDGIyEikSWileBfYkRZqM3GhpfKsgLZNJcEyEkgeT1WhBl1wkNDnWnsWV9H1VcDKjUoIJNZoC9+KevlmdrkhxW0yDmb96bVldHDi4mH42U6O7FICxQBY/fncXkCOBN0ekQE+vB45yXKeLgawV64I1T6/CvXXobaawDsNlBt26MAVSKCmEDEobfgKnNKWt1C/Ft8ADKDeTkadje071kNU2hFxIqY1LTgYURU7vLObZcJlIktVnJX8ql6ejCM4aCfAoadmh6m2sB08/BILCXU8mLQvXoQ7PAkEfF6NJy7qlXG626z6KO/JmjiTDIq8TipunN0FgfpLvSEvp+R/6oL7bK+2NP8d2GXAZWd2w2BHYG6jmnHsCaCv+90O/OA94+iV+iM+JKP9F+AoN3L/exlTOBU6L5VlldUPgV44SCnzOIF7A0xXJzza/Wdud9YryLMJI4L6aZn40viQn0MO2wOKOUitQ4FKoOJ7Flbg7ANvj6S6k5aG4H0sZ3iW4AzCYLl2FNnm3lAs2jATXhGxzTFHgHODMmtelQ/vb1F91zF8jAL0ZowPpz54I/4PfM648b0D1KPA8wliU74Gv8cNqfo/yNcK3gN+jFmYgIVMceRZBitM6ykLFJCYLA4NRFiLBQJRFUX6EsCl+muXGIIylwB0k+XOf/SVZiThHAAByeiAaEO76B0qCbWmTJ8q+j2qCHC/j3vb3ObCuc+qp2rr1JxXn0PD0T8DRwW3nFDISbStt+XWozQiAqpDjOWAjR6kCyi41jXXg6R4I55Jge1rlgwqu4xoBKJCipRmCiM3/HYDZdehiJNkK+Dl+5L/aD8kZl49RRgB/Lykhyvwo7g4AgKePAduGlHoPWLOikZmcbozyDO7fPzla2JTV5L81a+8P7T4KuBY4iLTcUcF19gDnOoccedas2dfreF2AabwDrBpQovwOgN++nwLP4v65TUXYnpQ8V/X2+X9vHsNPUfw+sB1pCfs307uszky93LsWlq7L372Y9e1FgKVqly9Iy72k5cDiF7CJ11gycm7Tv/wbx1GEJ3ZZGT/Pffn8l8MtYaXo4RmyunLNWjtRFySrNwLX448MXk+Hlh/aNsnjuJ9figS/rklbVIXvuY3gl3/l/M7nDSGlBqI8Sk53i3LJyLp0a5RHYVZq5pWAZ4upl0uXwL2WZUZIUKf5RHN1AGanzhCWM8DyXFeogNKJBCRR8g2nWxtnGqLZpWU8wu8ilDwKT7eo6F7TOAHoCimVQhhNVn9e9bZ26jZM5fW5vgIHk+SusgMStco3KHc6ywgXkNXNIl4xmm4dgMedSB3240/jFISwpE0DUe7D06sYrZUtplNNktUzKPAoMHdulyWBp/B0y9KvG5LhUfr8ltRImrcDILjyAzzAQBYmwQbA0Sg34QfDsIUnvcsjdKD8GTihOLqyKBlpJ8G++Eske7MAPbOFBTbxa+Nq4JWQUgLcHDnZVm+GydRiCO6vQkoujvAwnt5b0df5TDndBE//QYLHodfIfeuQrGCEQ7iImet2ercAwkN0aXVGILs0Q55n6vLyB//n1sOuQNhukARwHIPowtOjS+4IqApZ3ZYcryFcSPDarcHAw8VopqV4L+T47uR0R2eJrO6Hp2vShzXXGoDZeTqGoMxdwkmk5Ip5/ny09mMgaYTUbNvgUghtQDUTpzSq74AckEPJkSBLni6+xSsmAeqdp2/ip2zuzWmk5ZK4Gxa7RlgDMJP/S200Yds7hWtISWUZ6LK6OcKjRFuQmsffFvpnCjweeS69U1tJsCuwH7BWhDO+I88qZWft8/R84KwIbbmQgVxU1lbgsboUMzgd4WhggYhnVbYGYM42bg88RPTw3V8DDyA8Tp4XyTBhnkV2Y3Qg/ViDJNuh7E30rdzHFBMhRdetq5IPHcn4FvgteW6mXfwF2B3aH2EzhOMRdkK5jowcG3q/BtWcHYAxOpABfEXQNkhlIzJSWgTAbl2SAkOA5VFWAFZAZv3vH+MPV5X/xVR7BeCT4n8TEN5HmVjc0jiRJO+zGh+WtTLW0+sgMODMfaRlz7gbH7tG6gAAeHoB8NuQUgUSbEGbPFPhvbYEHqS07brfAi8DY1DeBT5D6EFIFHe5rFjspG8ALF/Cdb9A2KWiRWz+h8KzSKR55P8C11DgboZKt7Nkhy5Ggi2KX/s/Y+4Xv58GWxCGBtWsah0AgJzugPIA0Tsgs/se+Ag/eFt//J/9cpT+TrqAtESZtpqXp+Px17SEmYafFrkf/t+l2dv7FQNZrq8mIGvODoA/f/lUwNHpDGCRmkSam6gLMpULgRNCSj4LfImyENAfmafjMIgfvs56mDMBkaKzhlUnA9+RYGvUGaf8PSpd2e3i6QEQkAlN6CAlq9fkvn1Jo3UA/BXlb+KPcgUTxjKZYc4RoCg6dW0SPIC/uCsuY4C9y15ZPru3dWn68TylLcr7AOVVhP8Cn6K0kGBQ8SMihR97JGja9k2SbEueB6jFNsAg/sr8e3GlU68V4VxS8vuyz/f0FKDy0UfhQFJSj0yPVTd/BQKKbpjj2Js1CzO7gnzHKD2F5dgAda5BWIME61RlP3xOLwt5+eeBA2oacCdJR+AqAKWVUdrCFmKLLhvJEPmenB6O8jSuDwVlNQbxB0rNFzG3ofI6b+lP6MctCNVdQR6uAFzLAE6r2r/9NeQTcroZ8BhKe8Szfozw41n/T4gadOtupnEow2QqXp23rqfkOTxdB7gTqO7ixmDfohxOWu6s6CoDuIlpnAgsW9F1ChwGdUn1XHXNuggwOG2n8mpN77yF9NDDL3GnNF6UAvdUvEI+pzuinBRS6qKaf1V+TY7glKL9WZohNb2/KU9KngVGRCh5XHGPeGXWlC/JyC+KHYD6BAFSniHJcNJyfNU7/in5EGVDoLIXVbDPgUNJsS/DJGz7Zu2k5SNSbIFwBISsrq/cCxRYn0yFL3/wMx0KvyQsLXYYYRM87ZO/w5q1A+Aa1vRqfvd2GesMQuFbhzxXln2PDl0RZSTuaZ7nmET5Q2hR+cPDwVnnEjXL22Aq1Y/TgQ9DSiWAW5ioC1blnil5kCQZlCOB7oqvNy8F/glsRUY2qzgCoEtaJpOW/VF2Rums0lWnolxBkgxpubUhItaJKCm5iQGsgnAO8EWV7zAOOIQUGzNU3qnaVVPyJH64+HKnsGYAJ9U1amUVNesagEkEzVkl2KaiUKelyOnVaGhgkKNJS1jwjTn587fPAK75vi8p8BOGyvt1aaun/wK2DzhqOwE6dVkSXBVS6ndVmZ8ulafbo/wmtJxwE2m5p6r39kMHb46yD8Iu4JzOcsmjjC6mJL4vll/YqkIX21PgJIQtKf0D7DWEO0nwf3MkHpudp1eg9L6mRugiLa78H9UzURdkCrsiHABsAZTTOZwK/Bvhdtp4GJHKvtRd/J0vFwE7RjyjANxPgfOq2iGps+brAIzTRZjh2HvcwoqsJhPrUpfR2o9BjAJcw6cz8ENejop8XU9vBQ52lhF2IyUP1qWdAFn9XyRwnvg20nJI3epi+iZVoZs0ysYUyCCsir8q+0f4EeIG4E+tTQM+AMajjCPJKxR4uaESS/mZSzcjweYoQ/E7NkvgrzCfjDIFYRxKNwleJc/TDJVJcVe7LN06AGV9CmwItKK0kmBxlIHAIvjbiyfj78DoQumkwBssyLN1T/ud02HADiibo6yAsAT+WrnP8Kdc3gWeIs8TtMuESm7VCJqvA5DT9VBeDjg6lRSD6zqk1qErkuR13JnYPiPB+pEWBXp6PIRMHVRj/3apsnoEEjif/BRp2aqu9THGmCbXfGsAlFbHsa66z6e1ywSEvQmOlgewBAUeYZwu4ryWH2L00pA7vk6CU+raRoCkcx651ChexhhjKtR8HQBxzCEK42KpU0qeRDgvpFSG6dyBau8hMbt0FYR7cEdv+wxld1rFFaq0Vj5zHFs88lWMMcZURfN1ANT5svk08nWqrY3zUe5ylhF2Isd18/x5hy5GgX9CyH5/5QAy8l4s7ZvB546jNgJgjDF11nwdAPfX5ueRr1JtIsogDoHQOARH4ukPoS87tD9J7iUsYptyGhl5LLb2LeQcARhQUWIZY4wxJbMOwOyk6ntXS+PHk96V8H3X55HVY1EVktwMuNNhCn8lI5fH2raV+Rp/R0Pv+tkogDHG1FMzdgAWCzxSiLkDAH5UrQS74yfLCCZcSTf3AL8MueIYJnNY3M0qLq78KvB4kkXjrqIxxjSTZuwAuNL2xt8BAGiTl1EOwR0JPEmBPUKu9CEt/LziRC3VE9yeQoXhOI0xxpSk+ToA6oh9II4h6nrLyF9RTq3gCpNJ8LO6BTWKJjj5VKKBnr0xxjSB5usACMFZ57TBsiNm5DKEcubu8yj70yZvxt2EuQQ/3x4sG6AxxtRR83UAXAvREs499PFo4xSEkSWdoxxDRv4ed9V7Efx8E9YBMMaYerIOwOwabQQA/MVzkzkCiJZwIsFIMnJj3NUOkAw80mIdAGOMqadm7AC4pgAabwQAYCBHAe2RyhbYg07dJu4qz6NbFwb6Bx6fXnY6TmOMMWVoxg7AlMAjCZaOu3LzyOnZCFcTPXHTIBI8Qk73ibvqc8izsuPoVNqlMXZgGGNMk2i+DoAQnMJRWSnu6v1QF03i6VUovy/j7P4od5LV8BzudWuP49kq78ddPWOMaTbN1wEoOF82jdEB6NaFyfEAUEnKXkG4jJxeiGoj/JyDn61YB8AYY+qtEV4M9fae49jKcVeOrLaR5yVg59Cy4oisN5NyBl08FJpKuPZWcRyzDoAxxtSZdQDm1MoojW8ngKe7IIwGMqFllZtYiFWBpyOU/RkzeIVuHRpb24T1HEffi61exhjTpJqvA7AA4wgOSTuQH7NG3eukmiSr5wJ/AwZHOONS0hzJCvIFA9ge5W8RzvFHFnK6W93bN14XANYJbj9v1L1OxhjT5JqvAzBEvgK6Ao/3hGTWqzZPh+DxFMI5RFvp/0fScmoxuQ4Mke9JsyfKTRHOHYxyPzm9rPhSro9pbA4E3a9Af16uW12MMcYAzdgBABBedBwNn3uvBlUhq8cC7yBsGuGM71D2Jy2nz9seyZPmSOAPkVqv/IbveQ1Ph9elrX6K4yBvsap8Xad6GGOMKWrODgA8FnhE2BhPh9T07h26Ih6PI1wDLBThjAkU2JiM3Blcb1HSchbCgcB3oVcUhgIv4ul5jNbaBUAarQsBrpgEj9Ts3sYYYwI1ZwdgGo8RHBEwgXJsTe47RgeS1XNJ0omwdcSznibJcIbK65FKp+T/UDYBR7yDH7QAv2MQr5DTTWrS5oEcCgTvQBAaMWeBMcbM96JGl5v/ZPURhJ0Cjn5LkhSt8kFV7qWapIuDUc4Dlo1+HtcxlRMZLqWnyu3WJclzD7B5Cff7G3A6GemKfI67DguTJwssF1DCIy3hOx6MMcZUXXOOAPgtv9lxdCHyjKg4gM5o7Yene5HjzeIivagv/28QDiIjx5b18gdolU+ZxDbAVZHPEXZDeIecXkOHLlNR2wEKXErwyx+UWyq+hzHGmLI07wjAKG1hObIoqwWWES4nJSeXfO23dWn6cQRwFK4XYO+eIs/BtEuUIfxo/PgCI9CSch1MR7ifAteQkRdLOM+X01+hXOso8RX9WNkWABpjTDyatwMAkNMDUW53llHuosCJtMvHznLjdVG+ZweE3YBdcGW+6923KKeT5tpZW/yq29YlUK4D9irj7NdRbqOFB0OnRSbqgkzlHOBUXH+/hHNJSTl5DowxxlRBc3cAVJN4PI+wfkjJacCjwAsI76N8hzKQBMsCKQqsi7Amrnz3LsJLFDioanPvLjndu9gRWLycJ4bQSYEXEN5BeReYQpIW8ixffI57AEuGXOddprAGw8VSABtjTEyauwMA0Kmrk2A0MCCGu38InE2KkYgU6nbXDl2GJJcD+1L/vwMFEmxHmzxR5/saY4yZTfMuApxpqLyDcESd7zoFOJsptJGWW+v68gdol49Jy/7FL/bwXALVdY69/I0xJn42AjCTp2cB59f4LjMQbqOHc0LXFNS37bsAfwRSNb7TzaQ4oiZrHIwxxpTEOgCz81euXwFUOzLexyg3IowgLR/F3cxejdZ+DGRPhGOBDWtwh8tIcaq9/I0xpjFYB2BuWV2HBLejtFd8LX9x3zUUuI92mR530yLr1LVJcCz+GoHKkgYJn1DgcDJiEf+MMaaBWAegN37kvj0ocGIxj33U5zQN5WWER8jzN9plbNxNqUiHLkaSXRF2Q9mSaHkLZpoAXAvcQFomx90UY4wxc7IOQBhPl0PZFqEdIY0yEFgYfyHflwgTAQ/hHfrxCkPk+7irXBOjtR8LsQ4J1gPSwCrAEgiLFLdFfoswtrg98AlSvGbD/cYYY4wxxhhjjDHGGGOMMcYYY4wxxhhjjDHGGGOMMcYYY4wxxhhjjDHGGGOMMcYYY4wxxhhjjDHGGGOMMcYYY4wxxhhjjDHGGGOMMcYYY4wxxhhjjDHGGGOMMcYYY4wxxhhjjDHGGGOMMcYYY4wxxhhjjDHGGGOMMcYYY4wxxhhjjDHGGGOMMcYYY4wxxhhjjDHGGGOMMcYYY4wxxhhjjDHGGGOMMcYYY4wxxhhjjDHGGGOMMcYYY4wxxhhjjDHGGGOMMcYYY4wxxhhjjDHGGGOMMcYYY4wxxhhjjDHGGGOMMcYYY4wxxhhjjDHGGGOMMcYYY4wxxhhjjDHGGGOMMcYYY4wxxhhjjDHGGGOMMSYe/w8GIHsfd6VUXAAAAABJRU5ErkJggg==;labelBackgroundColor=#FFFFFF;" parent="5scalSbA3UBasT8FJ00V-1" vertex="1">
          <mxGeometry x="340" y="205" width="140" height="70" as="geometry" />
        </mxCell>
        <mxCell id="5scalSbA3UBasT8FJ00V-11" value="" style="edgeStyle=orthogonalEdgeStyle;html=1;endArrow=block;elbow=vertical;startArrow=none;endFill=1;strokeColor=#545B64;rounded=0;exitX=1;exitY=0.5;exitDx=0;exitDy=0;exitPerimeter=0;entryX=0;entryY=0.5;entryDx=0;entryDy=0;entryPerimeter=0;" parent="5scalSbA3UBasT8FJ00V-1" source="5scalSbA3UBasT8FJ00V-4" target="5scalSbA3UBasT8FJ00V-5" edge="1">
          <mxGeometry width="100" relative="1" as="geometry">
            <mxPoint x="194" y="229" as="sourcePoint" />
            <mxPoint x="270" y="229" as="targetPoint" />
          </mxGeometry>
        </mxCell>
        <mxCell id="5scalSbA3UBasT8FJ00V-12" value="" style="edgeStyle=orthogonalEdgeStyle;html=1;endArrow=block;elbow=vertical;startArrow=none;endFill=1;strokeColor=#545B64;rounded=0;entryX=0;entryY=0.5;entryDx=0;entryDy=0;entryPerimeter=0;exitX=0.5;exitY=1;exitDx=0;exitDy=0;exitPerimeter=0;" parent="5scalSbA3UBasT8FJ00V-1" source="5scalSbA3UBasT8FJ00V-4" target="5scalSbA3UBasT8FJ00V-6" edge="1">
          <mxGeometry width="100" relative="1" as="geometry">
            <mxPoint x="-173" y="260" as="sourcePoint" />
            <mxPoint x="79" y="260" as="targetPoint" />
            <Array as="points">
              <mxPoint x="84" y="373" />
            </Array>
          </mxGeometry>
        </mxCell>
        <mxCell id="5scalSbA3UBasT8FJ00V-13" value="Route53" style="rounded=0;whiteSpace=wrap;html=1;strokeColor=none;fontSize=17;fontStyle=1" parent="5scalSbA3UBasT8FJ00V-1" vertex="1">
          <mxGeometry x="44" y="140" width="80" height="30" as="geometry" />
        </mxCell>
        <mxCell id="5scalSbA3UBasT8FJ00V-17" value="CloudFrontのログ保存用S3" style="rounded=0;whiteSpace=wrap;html=1;strokeColor=none;fontSize=17;fontStyle=1" parent="5scalSbA3UBasT8FJ00V-1" vertex="1">
          <mxGeometry x="194" y="412" width="221" height="30" as="geometry" />
        </mxCell>
        <mxCell id="5scalSbA3UBasT8FJ00V-16" value="アプリ用S3" style="rounded=0;whiteSpace=wrap;html=1;strokeColor=none;fontSize=17;fontStyle=1" parent="5scalSbA3UBasT8FJ00V-1" vertex="1">
          <mxGeometry x="248.13" y="270" width="113.75" height="30" as="geometry" />
        </mxCell>
        <mxCell id="5scalSbA3UBasT8FJ00V-19" value="" style="sketch=0;points=[[0,0,0],[0.25,0,0],[0.5,0,0],[0.75,0,0],[1,0,0],[0,1,0],[0.25,1,0],[0.5,1,0],[0.75,1,0],[1,1,0],[0,0.25,0],[0,0.5,0],[0,0.75,0],[1,0.25,0],[1,0.5,0],[1,0.75,0]];outlineConnect=0;fontColor=#232F3E;gradientColor=#F54749;gradientDirection=north;fillColor=#C7131F;strokeColor=#ffffff;dashed=0;verticalLabelPosition=bottom;verticalAlign=top;align=center;html=1;fontSize=12;fontStyle=0;aspect=fixed;shape=mxgraph.aws4.resourceIcon;resIcon=mxgraph.aws4.certificate_manager_3;" parent="5scalSbA3UBasT8FJ00V-1" vertex="1">
          <mxGeometry x="44" y="442" width="78" height="78" as="geometry" />
        </mxCell>
        <mxCell id="5scalSbA3UBasT8FJ00V-20" value="ACM" style="rounded=0;whiteSpace=wrap;html=1;strokeColor=none;fontSize=17;fontStyle=1" parent="5scalSbA3UBasT8FJ00V-1" vertex="1">
          <mxGeometry x="50.5" y="530" width="67" height="30" as="geometry" />
        </mxCell>
        <mxCell id="5scalSbA3UBasT8FJ00V-21" value="" style="edgeStyle=orthogonalEdgeStyle;html=1;endArrow=block;elbow=vertical;startArrow=none;endFill=1;strokeColor=#545B64;rounded=0;exitX=0.25;exitY=0;exitDx=0;exitDy=0;exitPerimeter=0;entryX=0.25;entryY=1;entryDx=0;entryDy=0;entryPerimeter=0;" parent="5scalSbA3UBasT8FJ00V-1" source="5scalSbA3UBasT8FJ00V-19" target="5scalSbA3UBasT8FJ00V-4" edge="1">
          <mxGeometry width="100" relative="1" as="geometry">
            <mxPoint x="29" y="426.5" as="sourcePoint" />
            <mxPoint x="172" y="426.5" as="targetPoint" />
            <Array as="points">
              <mxPoint x="65" y="442" />
              <mxPoint x="65" y="440" />
            </Array>
          </mxGeometry>
        </mxCell>
        <mxCell id="5scalSbA3UBasT8FJ00V-14" value="CloudFront" style="rounded=0;whiteSpace=wrap;html=1;strokeColor=none;fontSize=17;fontStyle=1" parent="5scalSbA3UBasT8FJ00V-1" vertex="1">
          <mxGeometry x="29" y="270" width="110" height="30" as="geometry" />
        </mxCell>
        <mxCell id="5scalSbA3UBasT8FJ00V-2" value="" style="sketch=0;outlineConnect=0;fontColor=#232F3E;gradientColor=none;fillColor=#232F3D;strokeColor=none;dashed=0;verticalLabelPosition=bottom;verticalAlign=top;align=center;html=1;fontSize=12;fontStyle=0;aspect=fixed;pointerEvents=1;shape=mxgraph.aws4.users;" parent="1" vertex="1">
          <mxGeometry x="40" y="360" width="78" height="78" as="geometry" />
        </mxCell>
        <mxCell id="5scalSbA3UBasT8FJ00V-8" value="" style="edgeStyle=orthogonalEdgeStyle;html=1;endArrow=block;elbow=vertical;startArrow=none;endFill=1;strokeColor=#545B64;rounded=0;entryX=0;entryY=0.5;entryDx=0;entryDy=0;entryPerimeter=0;" parent="1" source="5scalSbA3UBasT8FJ00V-2" target="5scalSbA3UBasT8FJ00V-4" edge="1">
          <mxGeometry width="100" relative="1" as="geometry">
            <mxPoint x="530" y="530" as="sourcePoint" />
            <mxPoint x="370" y="400" as="targetPoint" />
            <Array as="points" />
          </mxGeometry>
        </mxCell>
        <mxCell id="5scalSbA3UBasT8FJ00V-9" value="" style="edgeStyle=orthogonalEdgeStyle;html=1;endArrow=block;elbow=vertical;startArrow=none;endFill=1;strokeColor=#545B64;rounded=0;entryX=0;entryY=0.5;entryDx=0;entryDy=0;entryPerimeter=0;" parent="1" target="5scalSbA3UBasT8FJ00V-3" edge="1">
          <mxGeometry width="100" relative="1" as="geometry">
            <mxPoint x="240" y="400" as="sourcePoint" />
            <mxPoint x="380" y="410" as="targetPoint" />
            <Array as="points">
              <mxPoint x="240" y="269" />
            </Array>
          </mxGeometry>
        </mxCell>
        <mxCell id="5scalSbA3UBasT8FJ00V-15" value="Users" style="rounded=0;whiteSpace=wrap;html=1;strokeColor=none;fontSize=17;fontStyle=1" parent="1" vertex="1">
          <mxGeometry x="39" y="438" width="80" height="30" as="geometry" />
        </mxCell>
        <mxCell id="5scalSbA3UBasT8FJ00V-18" value="test.hisui-app.com" style="rounded=0;whiteSpace=wrap;html=1;strokeColor=none;fontSize=17;fontStyle=1" parent="1" vertex="1">
          <mxGeometry x="130" y="400" width="180" height="30" as="geometry" />
        </mxCell>
        <mxCell id="5scalSbA3UBasT8FJ00V-22" value="HTTPS" style="rounded=0;whiteSpace=wrap;html=1;strokeColor=none;fontSize=17;fontStyle=1" parent="1" vertex="1">
          <mxGeometry x="140" y="368" width="80" height="30" as="geometry" />
        </mxCell>
      </root>
    </mxGraphModel>
  </diagram>
</mxfile>
